<svg id="visual" viewBox="0 0 900 600" width="900" height="600" xmlns="http://www.w3.org/2000/svg" xmlns:xlink="http://www.w3.org/1999/xlink" version="1.1"><g stroke-width="1" stroke-linejoin="bevel"><path d="M429 292L432 387L470 328Z" fill="#2b9c70" stroke="#2b9c70"></path><path d="M432 387L536 364L470 328Z" fill="#fceb3d" stroke="#fceb3d"></path><path d="M470 328L531 188L429 292Z" fill="#006b69" stroke="#006b69"></path><path d="M429 292L310 401L432 387Z" fill="#00101c" stroke="#00101c"></path><path d="M536 364L572 330L470 328Z" fill="#006b69" stroke="#006b69"></path><path d="M508 491L536 364L432 387Z" fill="#00535c" stroke="#00535c"></path><path d="M508 491L575 404L536 364Z" fill="#57b468" stroke="#57b468"></path><path d="M536 364L575 404L572 330Z" fill="#2b9c70" stroke="#2b9c70"></path><path d="M310 401L405 507L432 387Z" fill="#00101c" stroke="#00101c"></path><path d="M429 292L267 276L310 401Z" fill="#bedc4a" stroke="#bedc4a"></path><path d="M531 188L422 168L429 292Z" fill="#00535c" stroke="#00535c"></path><path d="M429 292L321 198L267 276Z" fill="#2b9c70" stroke="#2b9c70"></path><path d="M405 507L508 491L432 387Z" fill="#00535c" stroke="#00535c"></path><path d="M422 168L321 198L429 292Z" fill="#003b4a" stroke="#003b4a"></path><path d="M572 330L531 188L470 328Z" fill="#00535c" stroke="#00535c"></path><path d="M214 371L274 468L310 401Z" fill="#fceb3d" stroke="#fceb3d"></path><path d="M310 401L274 468L405 507Z" fill="#2b9c70" stroke="#2b9c70"></path><path d="M267 276L214 371L310 401Z" fill="#002534" stroke="#002534"></path><path d="M321 198L233 218L267 276Z" fill="#003b4a" stroke="#003b4a"></path><path d="M267 276L163 325L214 371Z" fill="#002534" stroke="#002534"></path><path d="M230 90L233 218L321 198Z" fill="#2b9c70" stroke="#2b9c70"></path><path d="M639 176L525 137L531 188Z" fill="#008470" stroke="#008470"></path><path d="M531 188L525 137L422 168Z" fill="#003b4a" stroke="#003b4a"></path><path d="M422 168L364 84L321 198Z" fill="#2b9c70" stroke="#2b9c70"></path><path d="M568 600L627 498L508 491Z" fill="#2b9c70" stroke="#2b9c70"></path><path d="M508 491L627 498L575 404Z" fill="#002534" stroke="#002534"></path><path d="M575 404L682 379L572 330Z" fill="#006b69" stroke="#006b69"></path><path d="M572 330L639 176L531 188Z" fill="#006b69" stroke="#006b69"></path><path d="M233 218L163 325L267 276Z" fill="#006b69" stroke="#006b69"></path><path d="M214 371L166 462L274 468Z" fill="#fceb3d" stroke="#fceb3d"></path><path d="M274 600L406 600L405 507Z" fill="#87c95a" stroke="#87c95a"></path><path d="M405 507L501 600L508 491Z" fill="#bedc4a" stroke="#bedc4a"></path><path d="M627 498L682 379L575 404Z" fill="#002534" stroke="#002534"></path><path d="M472 0L364 84L422 168Z" fill="#00101c" stroke="#00101c"></path><path d="M699 202L639 176L572 330Z" fill="#00535c" stroke="#00535c"></path><path d="M406 600L501 600L405 507Z" fill="#2b9c70" stroke="#2b9c70"></path><path d="M364 84L299 84L321 198Z" fill="#003b4a" stroke="#003b4a"></path><path d="M233 218L129 266L163 325Z" fill="#57b468" stroke="#57b468"></path><path d="M112 439L166 462L214 371Z" fill="#003b4a" stroke="#003b4a"></path><path d="M274 468L274 600L405 507Z" fill="#003b4a" stroke="#003b4a"></path><path d="M501 600L568 600L508 491Z" fill="#008470" stroke="#008470"></path><path d="M234 600L274 600L274 468Z" fill="#bedc4a" stroke="#bedc4a"></path><path d="M90 230L129 266L233 218Z" fill="#00101c" stroke="#00101c"></path><path d="M112 439L131 481L166 462Z" fill="#bedc4a" stroke="#bedc4a"></path><path d="M819 338L725 294L682 379Z" fill="#006b69" stroke="#006b69"></path><path d="M682 379L725 294L572 330Z" fill="#57b468" stroke="#57b468"></path><path d="M725 294L699 202L572 330Z" fill="#00101c" stroke="#00101c"></path><path d="M299 84L230 90L321 198Z" fill="#87c95a" stroke="#87c95a"></path><path d="M166 462L234 600L274 468Z" fill="#fceb3d" stroke="#fceb3d"></path><path d="M112 439L214 371L163 325Z" fill="#87c95a" stroke="#87c95a"></path><path d="M166 462L131 481L234 600Z" fill="#008470" stroke="#008470"></path><path d="M0 335L112 439L163 325Z" fill="#00535c" stroke="#00535c"></path><path d="M814 190L678 122L699 202Z" fill="#57b468" stroke="#57b468"></path><path d="M699 202L678 122L639 176Z" fill="#008470" stroke="#008470"></path><path d="M639 176L634 74L525 137Z" fill="#bedc4a" stroke="#bedc4a"></path><path d="M472 0L384 0L364 84Z" fill="#fceb3d" stroke="#fceb3d"></path><path d="M678 122L634 74L639 176Z" fill="#008470" stroke="#008470"></path><path d="M364 84L384 0L299 84Z" fill="#2b9c70" stroke="#2b9c70"></path><path d="M472 0L422 168L525 137Z" fill="#fceb3d" stroke="#fceb3d"></path><path d="M299 84L268 0L230 90Z" fill="#2b9c70" stroke="#2b9c70"></path><path d="M634 74L472 0L525 137Z" fill="#002534" stroke="#002534"></path><path d="M679 600L721 512L627 498Z" fill="#2b9c70" stroke="#2b9c70"></path><path d="M627 498L721 512L682 379Z" fill="#fceb3d" stroke="#fceb3d"></path><path d="M92 98L90 230L233 218Z" fill="#00535c" stroke="#00535c"></path><path d="M129 266L0 335L163 325Z" fill="#bedc4a" stroke="#bedc4a"></path><path d="M568 600L679 600L627 498Z" fill="#003b4a" stroke="#003b4a"></path><path d="M721 512L781 428L682 379Z" fill="#006b69" stroke="#006b69"></path><path d="M725 294L814 190L699 202Z" fill="#00535c" stroke="#00535c"></path><path d="M797 501L781 428L721 512Z" fill="#003b4a" stroke="#003b4a"></path><path d="M384 0L268 0L299 84Z" fill="#006b69" stroke="#006b69"></path><path d="M230 90L92 98L233 218Z" fill="#87c95a" stroke="#87c95a"></path><path d="M781 428L819 338L682 379Z" fill="#00101c" stroke="#00101c"></path><path d="M268 0L218 0L230 90Z" fill="#fceb3d" stroke="#fceb3d"></path><path d="M672 0L630 0L634 74Z" fill="#fceb3d" stroke="#fceb3d"></path><path d="M634 74L630 0L472 0Z" fill="#fceb3d" stroke="#fceb3d"></path><path d="M672 0L634 74L678 122Z" fill="#00101c" stroke="#00101c"></path><path d="M808 600L797 501L721 512Z" fill="#87c95a" stroke="#87c95a"></path><path d="M900 396L900 324L819 338Z" fill="#57b468" stroke="#57b468"></path><path d="M218 0L92 98L230 90Z" fill="#008470" stroke="#008470"></path><path d="M0 494L131 481L112 439Z" fill="#bedc4a" stroke="#bedc4a"></path><path d="M0 494L97 600L131 481Z" fill="#00101c" stroke="#00101c"></path><path d="M131 481L97 600L234 600Z" fill="#2b9c70" stroke="#2b9c70"></path><path d="M819 338L814 190L725 294Z" fill="#00101c" stroke="#00101c"></path><path d="M825 0L672 0L678 122Z" fill="#00535c" stroke="#00535c"></path><path d="M0 210L0 335L90 230Z" fill="#00101c" stroke="#00101c"></path><path d="M90 230L0 335L129 266Z" fill="#00101c" stroke="#00101c"></path><path d="M0 335L0 418L112 439Z" fill="#fceb3d" stroke="#fceb3d"></path><path d="M0 117L0 210L90 230Z" fill="#fceb3d" stroke="#fceb3d"></path><path d="M0 418L0 494L112 439Z" fill="#008470" stroke="#008470"></path><path d="M900 192L836 127L814 190Z" fill="#00101c" stroke="#00101c"></path><path d="M814 190L836 127L678 122Z" fill="#bedc4a" stroke="#bedc4a"></path><path d="M679 600L808 600L721 512Z" fill="#00101c" stroke="#00101c"></path><path d="M900 396L819 338L781 428Z" fill="#003b4a" stroke="#003b4a"></path><path d="M819 338L900 324L814 190Z" fill="#bedc4a" stroke="#bedc4a"></path><path d="M900 396L781 428L797 501Z" fill="#008470" stroke="#008470"></path><path d="M0 0L0 117L92 98Z" fill="#57b468" stroke="#57b468"></path><path d="M92 98L0 117L90 230Z" fill="#008470" stroke="#008470"></path><path d="M900 523L900 396L797 501Z" fill="#00535c" stroke="#00535c"></path><path d="M218 0L76 0L92 98Z" fill="#003b4a" stroke="#003b4a"></path><path d="M0 494L0 600L97 600Z" fill="#003b4a" stroke="#003b4a"></path><path d="M900 324L900 192L814 190Z" fill="#00535c" stroke="#00535c"></path><path d="M808 600L900 523L797 501Z" fill="#006b69" stroke="#006b69"></path><path d="M900 86L825 0L836 127Z" fill="#006b69" stroke="#006b69"></path><path d="M836 127L825 0L678 122Z" fill="#bedc4a" stroke="#bedc4a"></path><path d="M900 192L900 86L836 127Z" fill="#87c95a" stroke="#87c95a"></path><path d="M76 0L0 0L92 98Z" fill="#008470" stroke="#008470"></path><path d="M808 600L900 600L900 523Z" fill="#57b468" stroke="#57b468"></path><path d="M900 86L900 0L825 0Z" fill="#002534" stroke="#002534"></path></g></svg>